<?xml version="1.0" encoding="UTF-8" standalone="no"?>
<!DOCTYPE svg PUBLIC "-//W3C//DTD SVG 1.1//EN"
 "http://www.w3.org/Graphics/SVG/1.1/DTD/svg11.dtd">
<!-- Generated by graphviz version 9.0.0 (0)
 -->
<!-- Pages: 1 -->
<svg width="536pt" height="330pt"
 viewBox="0.00 0.00 535.96 330.06" xmlns="http://www.w3.org/2000/svg" xmlns:xlink="http://www.w3.org/1999/xlink">
<g id="graph0" class="graph" transform="scale(1 1) rotate(0) translate(4 326.06)">
<polygon fill="white" stroke="none" points="-4,4 -4,-326.06 531.96,-326.06 531.96,4 -4,4"/>
<!-- &lt;19,13&gt; -->
<g id="node1" class="node">
<title>&lt;19,13&gt;</title>
<ellipse fill="none" stroke="black" cx="179.18" cy="-302.62" rx="45.79" ry="19.45"/>
<text text-anchor="middle" x="179.18" y="-299.07" font-family="Times,serif" font-size="14.00">&lt;19,13&gt;</text>
</g>
<!-- &lt;13,13&gt; -->
<g id="node2" class="node">
<title>&lt;13,13&gt;</title>
<ellipse fill="none" stroke="black" cx="258.18" cy="-208.23" rx="45.79" ry="19.45"/>
<text text-anchor="middle" x="258.18" y="-204.68" font-family="Times,serif" font-size="14.00">&lt;13,13&gt;</text>
</g>
<!-- &lt;19,13&gt;&#45;&#45;&lt;13,13&gt; -->
<g id="edge1" class="edge">
<title>&lt;19,13&gt;&#45;&#45;&lt;13,13&gt;</title>
<path fill="none" stroke="black" d="M194.41,-283.8C208.4,-267.44 229.02,-243.33 242.99,-226.99"/>
<text text-anchor="middle" x="232.68" y="-251.87" font-family="Times,serif" font-size="14.00">10</text>
</g>
<!-- &lt;19,19&gt; -->
<g id="node3" class="node">
<title>&lt;19,19&gt;</title>
<ellipse fill="none" stroke="black" cx="408.18" cy="-19.45" rx="45.79" ry="19.45"/>
<text text-anchor="middle" x="408.18" y="-15.9" font-family="Times,serif" font-size="14.00">&lt;19,19&gt;</text>
</g>
<!-- &lt;19,13&gt;&#45;&#45;&lt;19,19&gt; -->
<g id="edge2" class="edge">
<title>&lt;19,13&gt;&#45;&#45;&lt;19,19&gt;</title>
<path fill="none" stroke="black" d="M211.12,-288.29C239.72,-275.4 281.84,-253.99 313.18,-227.67 354.42,-193.03 367.1,-182.41 389.18,-133.28 403.1,-102.3 406.9,-62.36 407.89,-39.26"/>
<text text-anchor="middle" x="387.68" y="-157.48" font-family="Times,serif" font-size="14.00">10</text>
</g>
<!-- &lt;13,5&gt; -->
<g id="node4" class="node">
<title>&lt;13,5&gt;</title>
<ellipse fill="none" stroke="black" cx="179.18" cy="-113.84" rx="40.48" ry="19.45"/>
<text text-anchor="middle" x="179.18" y="-110.29" font-family="Times,serif" font-size="14.00">&lt;13,5&gt;</text>
</g>
<!-- &lt;19,13&gt;&#45;&#45;&lt;13,5&gt; -->
<g id="edge3" class="edge">
<title>&lt;19,13&gt;&#45;&#45;&lt;13,5&gt;</title>
<path fill="none" stroke="black" d="M179.18,-282.68C179.18,-246.79 179.18,-169.26 179.18,-133.55"/>
<text text-anchor="middle" x="186.68" y="-204.68" font-family="Times,serif" font-size="14.00">38</text>
</g>
<!-- &lt;13,13&gt;&#45;&#45;&lt;13,5&gt; -->
<g id="edge5" class="edge">
<title>&lt;13,13&gt;&#45;&#45;&lt;13,5&gt;</title>
<path fill="none" stroke="black" d="M242.48,-189.5C237.26,-183.57 231.45,-176.91 226.18,-170.78 215.1,-157.89 202.74,-143.16 193.48,-132.06"/>
<text text-anchor="middle" x="233.68" y="-157.48" font-family="Times,serif" font-size="14.00">12</text>
</g>
<!-- &lt;3,11&gt; -->
<g id="node6" class="node">
<title>&lt;3,11&gt;</title>
<ellipse fill="none" stroke="black" cx="255.18" cy="-19.45" rx="40.48" ry="19.45"/>
<text text-anchor="middle" x="255.18" y="-15.9" font-family="Times,serif" font-size="14.00">&lt;3,11&gt;</text>
</g>
<!-- &lt;13,13&gt;&#45;&#45;&lt;3,11&gt; -->
<g id="edge6" class="edge">
<title>&lt;13,13&gt;&#45;&#45;&lt;3,11&gt;</title>
<path fill="none" stroke="black" d="M257.87,-188.29C257.3,-152.4 256.05,-74.87 255.48,-39.16"/>
<text text-anchor="middle" x="263.68" y="-110.29" font-family="Times,serif" font-size="14.00">24</text>
</g>
<!-- &lt;11,21&gt; -->
<g id="node7" class="node">
<title>&lt;11,21&gt;</title>
<ellipse fill="none" stroke="black" cx="334.18" cy="-113.84" rx="45.79" ry="19.45"/>
<text text-anchor="middle" x="334.18" y="-110.29" font-family="Times,serif" font-size="14.00">&lt;11,21&gt;</text>
</g>
<!-- &lt;13,13&gt;&#45;&#45;&lt;11,21&gt; -->
<g id="edge7" class="edge">
<title>&lt;13,13&gt;&#45;&#45;&lt;11,21&gt;</title>
<path fill="none" stroke="black" d="M272.83,-189.41C286.29,-173.05 306.13,-148.94 319.57,-132.6"/>
<text text-anchor="middle" x="309.68" y="-157.48" font-family="Times,serif" font-size="14.00">18</text>
</g>
<!-- &lt;22,21&gt; -->
<g id="node5" class="node">
<title>&lt;22,21&gt;</title>
<ellipse fill="none" stroke="black" cx="482.18" cy="-113.84" rx="45.79" ry="19.45"/>
<text text-anchor="middle" x="482.18" y="-110.29" font-family="Times,serif" font-size="14.00">&lt;22,21&gt;</text>
</g>
<!-- &lt;22,21&gt;&#45;&#45;&lt;19,19&gt; -->
<g id="edge4" class="edge">
<title>&lt;22,21&gt;&#45;&#45;&lt;19,19&gt;</title>
<path fill="none" stroke="black" d="M467.91,-95.02C454.81,-78.66 435.49,-54.55 422.4,-38.2"/>
<text text-anchor="middle" x="454.93" y="-63.09" font-family="Times,serif" font-size="14.00">5</text>
</g>
<!-- &lt;11,21&gt;&#45;&#45;&lt;19,19&gt; -->
<g id="edge9" class="edge">
<title>&lt;11,21&gt;&#45;&#45;&lt;19,19&gt;</title>
<path fill="none" stroke="black" d="M348.45,-95.02C361.55,-78.66 380.86,-54.55 393.95,-38.2"/>
<text text-anchor="middle" x="384.68" y="-63.09" font-family="Times,serif" font-size="14.00">10</text>
</g>
<!-- &lt;11,21&gt;&#45;&#45;&lt;3,11&gt; -->
<g id="edge8" class="edge">
<title>&lt;11,21&gt;&#45;&#45;&lt;3,11&gt;</title>
<path fill="none" stroke="black" d="M318.95,-95.02C304.87,-78.56 284.07,-54.24 270.1,-37.89"/>
<text text-anchor="middle" x="308.68" y="-63.09" font-family="Times,serif" font-size="14.00">30</text>
</g>
<!-- &lt;5,3&gt; -->
<g id="node8" class="node">
<title>&lt;5,3&gt;</title>
<ellipse fill="none" stroke="black" cx="106.18" cy="-208.23" rx="35.18" ry="19.45"/>
<text text-anchor="middle" x="106.18" y="-204.68" font-family="Times,serif" font-size="14.00">&lt;5,3&gt;</text>
</g>
<!-- &lt;5,3&gt;&#45;&#45;&lt;13,5&gt; -->
<g id="edge12" class="edge">
<title>&lt;5,3&gt;&#45;&#45;&lt;13,5&gt;</title>
<path fill="none" stroke="black" d="M119.63,-190.07C128.33,-178.99 139.91,-164.27 150.18,-151.28 155.09,-145.07 160.5,-138.27 165.29,-132.25"/>
<text text-anchor="middle" x="157.68" y="-157.48" font-family="Times,serif" font-size="14.00">22</text>
</g>
<!-- &lt;5,3&gt;&#45;&#45;&lt;3,11&gt; -->
<g id="edge10" class="edge">
<title>&lt;5,3&gt;&#45;&#45;&lt;3,11&gt;</title>
<path fill="none" stroke="black" d="M102.57,-188.7C98.98,-164.81 96.38,-122.95 115.18,-94.39 138.91,-58.35 186.19,-38.7 219.21,-28.9"/>
<text text-anchor="middle" x="122.68" y="-110.29" font-family="Times,serif" font-size="14.00">22</text>
</g>
<!-- &lt;0,1&gt; -->
<g id="node9" class="node">
<title>&lt;0,1&gt;</title>
<ellipse fill="none" stroke="black" cx="35.18" cy="-113.84" rx="35.18" ry="19.45"/>
<text text-anchor="middle" x="35.18" y="-110.29" font-family="Times,serif" font-size="14.00">&lt;0,1&gt;</text>
</g>
<!-- &lt;5,3&gt;&#45;&#45;&lt;0,1&gt; -->
<g id="edge11" class="edge">
<title>&lt;5,3&gt;&#45;&#45;&lt;0,1&gt;</title>
<path fill="none" stroke="black" d="M92.21,-189.88C87.41,-183.86 82.02,-177.05 77.18,-170.78 67.23,-157.91 56.18,-143.18 47.92,-132.07"/>
<text text-anchor="middle" x="84.68" y="-157.48" font-family="Times,serif" font-size="14.00">15</text>
</g>
</g>
</svg>
